# AST/ASF file generated using VICON BodyLanguage
# -----------------------------------------------
:version 1.10
:name VICON
:units
  mass 1.0
  length 0.45
  angle deg
:documentation
   .ast/.asf automatically generated from VICON data using
   VICON BodyBuilder and BodyLanguage model FoxedUp or BRILLIANT.MOD
:root
   order TX TY TZ RX RY RZ
   axis XYZ
   position 0 0 0  
   orientation 0 0 0 
:bonedata
  begin
     id 1 
     name lhipjoint
     direction 0.611804 -0.747784 0.257906 
     length 2.29243 
     axis 0 0 0  XYZ
  end
  begin
     id 2 
     name lfemur
     direction 0.34202 -0.939693 0  
     length 7.31159  
     axis 0 0 20  XYZ
    dof rx ry rz
    limits (-160.0 20.0)
           (-70.0 70.0)
           (-60.0 70.0)
  end
  begin
     id 3 
     name ltibia
     direction 0.34202 -0.939693 0   
     length 7.33391   
     axis 0 0 20   XYZ
    dof rx
    limits (-10.0 170.0)
  end
  begin
     id 4 
     name lfoot
     direction 0.122263 -0.335914 0.933924   
     length 1.76083   
     axis -90 7.62852e-016 20   XYZ
    dof rx rz
    limits (-45.0 90.0)
           (-70.0 20.0)
  end
  begin
     id 5 
     name ltoes
     direction 1.53533e-011 -4.2177e-011 1   
     length 0.879206   
     axis -90 7.62852e-016 20   XYZ
    dof rx
    limits (-90.0 20.0)
  end
  begin
     id 6 
     name rhipjoint
     direction -0.646469 -0.721248 0.248754   
     length 2.37677  
     axis 0 0 0  XYZ 
  end
  begin
     id 7 
     name rfemur
     direction -0.34202 -0.939693 0   
     length 7.18623   
     axis 0 0 -20   XYZ
    dof rx ry rz
    limits (-160.0 20.0)
           (-70.0 70.0)
           (-70.0 60.0)
  end
  begin
     id 8 
     name rtibia
     direction -0.34202 -0.939693 0   
     length 7.36567   
     axis 0 0 -20   XYZ
    dof rx
    limits (-10.0 170.0)
 end
 begin
     id 9 
     name rfoot
     direction -0.126681 -0.348054 0.928876   
     length 1.71902  
     axis -90 -7.62852e-016 -20   XYZ
    dof rx rz
    limits (-45.0 90.0)
           (-20.0 70.0)
  end
  begin
     id 10 
     name rtoes
     direction -1.53551e-011 -4.21898e-011 1   
     length 0.857792   
     axis -90 -7.62852e-016 -20   XYZ
    dof rx
    limits (-90.0 20.0)
  end
  begin
     id 11 
     name lowerback
     direction 0.0106509 0.999778 0.0181844   
     length 2.07668   
     axis 0 0 0   XYZ
    dof rx ry rz
    limits (-20.0 45.0)
           (-30.0 30.0)
           (-30.0 30.0)
  end
  begin
     id 12 
     name upperback
     direction -0.00456018 0.999989 -0.000590935   
     length 2.08011   
     axis 0 0 0   XYZ
    dof rx ry rz
    limits (-20.0 45.0)
           (-30.0 30.0)
           (-30.0 30.0)
  end
  begin
     id 13 
     name thorax
     direction -0.00910382 0.999916 -0.00923765   
     length 2.07397   
     axis 0 0 0   XYZ
    dof rx ry rz
    limits (-20.0 45.0)
           (-30.0 30.0)
           (-30.0 30.0)
  end
  begin
     id 14 
     name lowerneck
     direction 0.00171967 0.99778 0.0665733   
     length 1.67556   
     axis 0 0 0   XYZ
    dof rx ry rz
    limits (-20.0 45.0)
           (-30.0 30.0)
           (-30.0 30.0)
  end
  begin
     id 15 
     name upperneck
     direction -0.0143166 0.991302 -0.130828   
     length 1.68462   
     axis 0 0 0   XYZ
    dof rx ry rz
    limits (-20.0 45.0)
           (-30.0 30.0)
           (-30.0 30.0)
  end
  begin
     id 16
     name head
     direction -0.00606378 0.998665 -0.0512995  
     length 1.69269  
     axis 0 0 0   XYZ
    dof rx ry rz
    limits (-20.0 45.0)
           (-30.0 30.0)
           (-30.0 30.0)
  end
  begin
     id 17 
     name lclavicle
     direction 0.9638 0.179341 0.197297  
     length 4.12888  
     axis 0 0 0   XYZ
    dof ry rz
    limits (-20.0 10.0)
           (0.0 20.0)
  end
  begin
     id 18 
     name lhumerus
     direction 1 -4.48972e-011 -2.47351e-027   
     length 5.01834   
     axis -180 -30 -90   XYZ
    dof rx ry rz
    limits (-60.0 90.0)
           (-90.0 90.0)
           (-90.0 90.0)
  end
  begin
     id 19
     name lradius
     direction 1 -4.48965e-011 1.51591e-026   
     length 3.4869   
     axis -180 -30 -90   XYZ
    dof rx
    limits (-10.0 170.0)
  end
  begin
     id 20
     name lwrist
     direction 1 -4.48957e-011 2.70032e-026   
     length 1.74345   
     axis -1.81515e-014 90 90   XYZ
    dof ry
    limits (-180.0 0.0)
 end
  begin
     id 21 
     name lhand
     direction 1 -4.48951e-011 5.40064e-026   
     length 0.76799   
     axis -3.44607e-014 90 90   XYZ
    dof rx rz
    limits (-90.0 90.0)
           (-45.0 45.0)
  end
  begin
     id 22 
     name lfingers
     direction 1 -4.48971e-011 1.08013e-025   
     length 0.619174   
     axis -6.89214e-014 90 90   XYZ
    dof rx
    limits (0.0 90.0)
  end
  begin
     id 23
     name lthumb
     direction 0.707107 -6.34931e-011 0.707107   
     length 0.889013   
     axis -90 45 2.85299e-015   XYZ
    dof rx rz
    limits (-45.0 45.0)
           (-45.0 45.0)
  end
  begin
     id 24 
     name rclavicle
     direction -0.961409 0.252588 0.109054   
     length 4.04305  
     axis 0 0 0   XYZ 
    dof ry rz
    limits (-10.0 20.0)
           (-20.0 0.0)
  end
  begin
     id 25 
     name rhumerus
     direction -1 -4.4897e-011 1.33872e-017  
     length 4.70164   
     axis -180 30 90   XYZ
    dof rx ry rz
    limits (-90.0 60.0)
           (-90.0 90.0)
           (-90.0 90.0)
  end
  begin
     id 26 
     name rradius
     direction -1 -4.48954e-011 1.83844e-026   
     length 3.49911   
     axis -180 30 90   XYZ
    dof rx
    limits (-10.0 170.0)
  end
  begin
     id 27 
     name rwrist
     direction -1 -4.49008e-011 2.70032e-026   
     length 1.74955   
     axis -1.81515e-014 -90 -90   XYZ
    dof ry
    limits (-180.0 0.0)
  end
  begin
     id 28
     name rhand
     direction -1 -4.48916e-011 5.40064e-026   
     length 0.739335   
     axis -3.44607e-014 -90 -90   XYZ
    dof rx rz
    limits (-90.0 90.0)
           (-45.0 45.0)
  end
  begin
     id 29
     name rfingers
     direction -1 -4.48987e-011 1.08013e-025   
     length 0.596071   
     axis -6.89214e-014 -90 -90   XYZ
    dof rx
    limits (0.0 90.0)
  end
  begin
     id 30
     name rthumb
     direction -0.707107 -6.34935e-011 0.707107   
     length 0.855843   
     axis -90 -45 -2.85299e-015   XYZ
    dof rx rz
    limits (-45.0 45.0)
           (-45.0 45.0)
  end
:hierarchy
  begin
    root lhipjoint rhipjoint lowerback
    lhipjoint lfemur
    lfemur ltibia
    ltibia lfoot
    lfoot ltoes
    rhipjoint rfemur
    rfemur rtibia
    rtibia rfoot
    rfoot rtoes
    lowerback upperback
    upperback thorax
    thorax lowerneck lclavicle rclavicle
    lowerneck upperneck
    upperneck head
    lclavicle lhumerus
    lhumerus lradius
    lradius lwrist
    lwrist lhand lthumb
    lhand lfingers
    rclavicle rhumerus
    rhumerus rradius
    rradius rwrist
    rwrist rhand rthumb
    rhand rfingers
  end

#!OML:ASF I:\salsa\salsa 7_09\Patient 1\Session 1\dancermale.ASF
:FULLY-SPECIFIED
:DEGREES
317
root 2.35584 17.5686 -3.03947 364.05 77.572 352.595
lowerback -6.13552 0.749461 5.53368
upperback -0.382321 0.654238 -0.92888
thorax 3.1217 0.412707 -4.01797
lowerneck -9.24657 -6.0572 -0.623115
upperneck 28.8148 -8.1725 1.17351
head 10.8642 -3.40222 -0.395786
rclavicle 5.26779e-015 -9.24349e-015
rhumerus -63.5797 42.6997 -51.0831
rradius 83.6226
rwrist 6.04289
rhand 49.7283 5.16369
rfingers 7.12502
rthumb 69.7727 8.71704
lclavicle 5.26779e-015 -9.24349e-015
lhumerus -55.7048 5.05183 68.8379
lradius 68.9804
lwrist 30.7484
lhand -14.605 60.9596
lfingers 7.12502
lthumb 11.5457 269.378
rfemur -11.9149 6.31562 21.5209
rtibia 12.4217
rfoot -13.3916 -12.7588
rtoes -3.51677
lfemur -24.3833 -5.0649 -10.4284
ltibia 43.6093
lfoot -18.4597 6.74587
ltoes 2.34209
318
root 2.38098 17.5704 -3.1523 364.2 77.7091 352.874
lowerback -6.02716 0.803895 5.31182
upperback -0.427583 0.747135 -0.84898
thorax 3.02001 0.451661 -3.80177
lowerneck -8.95699 -6.42479 -0.94796
upperneck 28.3401 -8.65643 1.27457
head 10.6561 -3.66661 -0.347262
rclavicle -6.34869e-015 -4.17448e-015
rhumerus -58.9834 42.3502 -46.6369
rradius 80.8287
rwrist 5.58957
rhand 46.4567 4.89592
rfingers 7.12502
rthumb 67.479 2.47595
lclavicle -6.34869e-015 -4.17448e-015
lhumerus -55.502 4.77056 67.2968
lradius 68.6291
lwrist 28.9506
lhand -15.6204 61.0172
lfingers 7.12502
lthumb 10.5663 269.268
rfemur -11.7557 6.42503 21.0305
rtibia 12.4679
rfoot -13.3695 -13.1447
rtoes -3.98134
lfemur -23.3687 -6.78768 -10.039
ltibia 40.3006
lfoot -17.9106 5.92166
ltoes 3.31728
319
root 2.40099 17.5675 -3.27285 364.731 77.8094 353.644
lowerback -5.93589 0.842018 5.0407
upperback -0.372648 0.818617 -0.827017
thorax 3.02904 0.484543 -3.61998
lowerneck -8.65204 -6.76364 -1.15929
upperneck 27.8356 -9.08756 1.25193
head 10.4245 -3.91145 -0.352039
rclavicle -6.99474e-015 1.28216e-014
rhumerus -53.927 41.6225 -42.2634
rradius 77.4057
rwrist 6.20245
rhand 43.4762 5.29716
rfingers 7.12502
rthumb 65.2065 -1.53212
lclavicle -6.99474e-015 1.28216e-014
lhumerus -54.9039 4.2502 65.8975
lradius 68.4832
lwrist 27.8008
lhand -16.8269 61.4786
lfingers 7.12502
lthumb 9.40235 268.751
rfemur -11.7385 6.53215 20.3969
rtibia 12.9175
rfoot -13.4779 -13.4999
rtoes -4.14843
lfemur -22.3515 -8.70218 -9.97123
ltibia 37.4489
lfoot -17.0217 4.60095
ltoes 5.62474
320
root 2.41147 17.5624 -3.40201 364.826 77.9274 354.022
lowerback -5.73435 0.873695 4.92783
upperback -0.354278 0.877864 -0.820209
thorax 2.93909 0.510336 -3.54576
lowerneck -8.38257 -7.08726 -1.47858
upperneck 27.5914 -9.519 1.39043
head 10.3147 -4.13776 -0.287265
rclavicle -1.98412e-014 -6.26172e-015
rhumerus -48.7367 40.4849 -38.1764
rradius 73.3799
rwrist 7.89493
rhand 40.831 6.03405
rfingers 7.12502
rthumb 63.0804 -4.0463
lclavicle -1.98412e-014 -6.26172e-015
lhumerus -53.9945 3.58775 64.5623
lradius 68.3081
lwrist 27.3341
lhand -16.6316 60.2356
lfingers 7.12502
lthumb 9.59084 89.9973
rfemur -11.9249 6.39251 19.8155
rtibia 13.7304
rfoot -13.7007 -13.6415
rtoes -5.30499
lfemur -21.4716 -10.2685 -10.1476
ltibia 35.7414
lfoot -16.9651 3.76595
ltoes 3.84371
321
root 2.41197 17.5578 -3.53946 364.334 78.0837 353.75
lowerback -5.53026 0.919024 5.00941
upperback -0.366571 0.943426 -0.799412
thorax 2.81932 0.540556 -3.56678
lowerneck -8.14127 -7.41163 -1.78877
upperneck 27.4604 -9.96131 1.55734
head 10.2565 -4.3601 -0.218137
rclavicle -1.85367e-014 -2.5345e-015
rhumerus -43.5726 38.8389 -34.3976
rradius 68.8389
rwrist 10.3955
rhand 38.7362 6.72167
rfingers 7.12502
rthumb 61.3395 -5.57107
lclavicle -1.85367e-014 -2.5345e-015
lhumerus -52.637 2.86646 63.3898
lradius 68.3533
lwrist 27.4914
lhand -16.3473 60.4444
lfingers 7.12502
lthumb 9.8651 269.807
rfemur -12.4059 5.93002 19.354
rtibia 14.9272
rfoot -13.9612 -13.5812
rtoes -8.47416
lfemur -20.8757 -11.1111 -10.4354
ltibia 35.1223
lfoot -17.6486 3.96234
ltoes -2.69264
322
root 2.40363 17.5551 -3.68166 363.92 78.2133 353.483
lowerback -5.49132 0.992716 5.03894
upperback -0.289927 1.0382 -0.751366
thorax 2.88603 0.590845 -3.5256
lowerneck -8.04432 -7.78291 -1.96642
upperneck 27.3208 -10.4419 1.51142
head 10.2049 -4.61114 -0.254501
rclavicle -1.42876e-015 -2.48481e-016
rhumerus -38.4189 36.5421 -30.8653
rradius 63.8066
rwrist 13.0697
rhand 36.4194 7.4797
rfingers 7.12502
rthumb 59.3667 -6.94869
lclavicle -1.42876e-015 -2.48481e-016
lhumerus -50.6617 2.26805 62.4376
lradius 68.1472
lwrist 27.8643
lhand -15.9461 59.6851
lfingers 7.12502
lthumb 10.2521 449.415
rfemur -13.1478 5.17982 18.918
rtibia 16.3664
rfoot -14.0963 -13.4562
rtoes -11.6436
lfemur -20.4733 -11.2023 -10.7937
ltibia 34.4914
lfoot -18.3427 4.17327
ltoes -8.43828
323
root 2.38818 17.554 -3.83094 364.209 78.386 353.902
lowerback -5.57181 1.03468 4.85474
upperback -0.141339 1.09447 -0.65984
thorax 3.08543 0.623147 -3.31983
lowerneck -8.15769 -8.16754 -2.23366
upperneck 27.3291 -10.9106 1.39499
head 10.2499 -4.86644 -0.312597
rclavicle -8.96861e-015 7.45443e-016
rhumerus -33.2535 33.6336 -27.5431
rradius 58.4384
rwrist 15.7094
rhand 33.4142 7.87158
rfingers 7.12502
rthumb 56.7475 -8.92287
lclavicle -8.96861e-015 7.45443e-016
lhumerus -48.2976 1.85764 61.786
lradius 68.1619
lwrist 28.0723
lhand -15.5174 59.6462
lfingers 7.12502
lthumb 10.6656 449.355
rfemur -14.0158 3.90092 18.3825
rtibia 17.8931
rfoot -14.1144 -13.1938
rtoes -12.0098
lfemur -20.0592 -10.5031 -11.4111
ltibia 33.5582
lfoot -19.039 4.06052
ltoes -12.9679
324
root 2.36855 17.5512 -3.9876 365.145 78.6058 355.006
lowerback -5.48662 1.07641 4.56992
upperback -0.109612 1.16929 -0.584542
thorax 3.06983 0.655746 -3.07579
lowerneck -8.21942 -8.59571 -2.7032
upperneck 27.5244 -11.4245 1.36548
head 10.3761 -5.1448 -0.317168
rclavicle -2.11333e-014 -3.08116e-015
rhumerus -28.3723 30.2674 -24.5701
rradius 52.884
rwrist 18.7162
rhand 30.0747 7.56543
rfingers 7.12502
rthumb 53.7741 -11.4242
lclavicle -2.11333e-014 -3.08116e-015
lhumerus -45.9417 1.21754 61.4023
lradius 68.3132
lwrist 27.9903
lhand -15.6508 59.7103
lfingers 7.12502
lthumb 10.537 449.426
rfemur -14.9005 2.49057 17.7223
rtibia 19.498
rfoot -14.159 -13.0035
rtoes -10.807
lfemur -19.4673 -9.34277 -12.2408
ltibia 32.3139
lfoot -19.6003 3.67072
ltoes -15.9763
325
root 2.3445 17.545 -4.149 366.112 78.7707 356.169
lowerback -5.1625 1.18827 4.39972
upperback -0.234837 1.34782 -0.59217
thorax 2.76995 0.73373 -2.97961
lowerneck -8.02365 -9.10355 -3.1924
upperneck 27.6692 -12.0724 1.43608
head 10.4498 -5.4785 -0.287778
rclavicle 2.88859e-015 3.32964e-015
rhumerus -24.0565 26.8914 -22.0839
rradius 47.4966
rwrist 22.3121
rhand 26.8129 7.09561
rfingers 7.12502
rthumb 50.8202 -13.6856
lclavicle 2.88859e-015 3.32964e-015
lhumerus -43.6483 0.10651 61.1411
lradius 68.7504
lwrist 27.7669
lhand -15.909 59.8315
lfingers 7.12502
lthumb 10.288 449.56
rfemur -15.7838 1.62921 17.0319
rtibia 21.111
rfoot -14.0716 -13.1668
rtoes -8.54417
lfemur -18.6592 -8.09315 -13.0435
ltibia 30.6865
lfoot -19.9703 2.86451
ltoes -17.0165
326
root 2.3121 17.5377 -4.31811 367.053 78.8609 357.26
lowerback -5.0075 1.27673 4.31971
upperback -0.252141 1.47861 -0.619003
thorax 2.67484 0.795694 -2.95519
lowerneck -7.78763 -9.55992 -3.53895
upperneck 27.4904 -12.6655 1.46623
head 10.3842 -5.79185 -0.279226
rclavicle -2.87741e-014 1.39149e-014
rhumerus -19.8926 23.8869 -19.8831
rradius 42.7898
rwrist 26.4942
rhand 23.8028 7.42293
rfingers 7.12502
rthumb 48.0598 -14.7619
lclavicle -2.87741e-014 1.39149e-014
lhumerus -41.1321 -0.842532 60.9065
lradius 69.3349
lwrist 27.5219
lhand -15.8265 59.8831
lfingers 7.12502
lthumb 10.3675 449.608
rfemur -16.7648 1.21601 16.2709
rtibia 22.7172
rfoot -13.673 -13.4369
rtoes -5.12921
lfemur -17.7962 -7.07218 -13.7696
ltibia 28.7607
lfoot -20.2346 1.64859
ltoes -16.5987
327
root 2.26947 17.5333 -4.49681 367.806 78.7969 358.037
lowerback -5.03396 1.3655 4.34626
upperback -0.192022 1.59197 -0.593372
thorax 2.76142 0.855082 -2.93351
lowerneck -7.56042 -9.97358 -3.94383
upperneck 27.0327 -13.1859 1.48326
head 10.2218 -6.09104 -0.251347
rclavicle -2.38542e-015 1.3418e-014
rhumerus -15.7826 21.1526 -17.8319
rradius 38.8869
rwrist 30.84
rhand 21.2828 8.63976
rfingers 7.12502
rthumb 45.7281 -14.5671
lclavicle -2.38542e-015 1.3418e-014
lhumerus -38.4531 -1.58909 60.7934
lradius 70.1054
lwrist 27.5112
lhand -15.7219 60.1047
lfingers 7.12502
lthumb 10.4685 449.824
rfemur -18.0344 0.803325 15.4383
rtibia 24.4773
rfoot -12.9145 -13.3317
rtoes -4.00676
lfemur -17.1074 -6.50681 -14.4111
ltibia 26.85
lfoot -20.2855 0.559902
ltoes -15.3161
328
root 2.21995 17.53 -4.68115 368.748 78.5525 358.93
lowerback -4.9706 1.53214 4.48597
upperback -0.211018 1.81103 -0.646529
thorax 2.73086 0.96543 -3.05158
lowerneck -7.35609 -10.4423 -4.41284
upperneck 26.573 -13.8073 1.62098
head 10.0856 -6.42892 -0.186634
rclavicle 5.39203e-015 -1.23246e-014
rhumerus -12.0889 18.581 -16.1408
rradius 35.6485
rwrist 34.4876
rhand 19.4224 9.95497
rfingers 7.12502
rthumb 43.9966 -13.9292
lclavicle 5.39203e-015 -1.23246e-014
lhumerus -35.8006 -2.65313 60.777
lradius 71.1612
lwrist 27.9195
lhand -16.5943 60.199
lfingers 7.12502
lthumb 9.62682 449.959
rfemur -19.6105 0.296523 14.4589
rtibia 26.5263
rfoot -12.0742 -12.6301
rtoes -4.96697
lfemur -16.5921 -6.76856 -15.0858
ltibia 25.3874
lfoot -20.078 0.00269481
ltoes -12.888
329
root 2.16643 17.5232 -4.86477 370.556 78.1706 360.719
lowerback -4.94909 1.69529 4.47988
upperback -0.176467 2.03394 -0.835154
thorax 2.7808 1.07927 -3.22598
lowerneck -7.27438 -10.9001 -4.72184
upperneck 26.1754 -14.4476 1.78247
head 9.98922 -6.75429 -0.149903
rclavicle 3.63527e-014 9.34288e-015
rhumerus -8.59877 15.9974 -14.9445
rradius 32.8121
rwrist 37.5557
rhand 17.5326 10.6498
rfingers 7.12502
rthumb 42.2299 -13.8627
lclavicle 3.63527e-014 9.34288e-015
lhumerus -33.1234 -3.83864 60.7292
lradius 72.4504
lwrist 28.496
lhand -16.5981 59.8842
lfingers 7.12502
lthumb 9.62312 449.644
rfemur -21.343 -0.135518 13.2301
rtibia 28.8173
rfoot -11.413 -11.6566
rtoes -5.27785
lfemur -16.235 -7.33491 -16.1053
ltibia 24.3252
lfoot -19.7844 0.327538
ltoes -11.7063
330
root 2.10484 17.5148 -5.04173 372.505 77.7178 362.642
lowerback -4.95867 1.8215 4.36786
upperback -0.125587 2.21435 -1.09535
thorax 2.86137 1.17221 -3.41714
lowerneck -7.07511 -11.3165 -4.93463
upperneck 25.6656 -15.0726 2.05537
head 9.8346 -7.0579 -0.078073
rclavicle 1.44864e-014 9.93923e-015
rhumerus -5.29442 13.6165 -14.166
rradius 30.4765
rwrist 40.3356
rhand 15.7057 11.0011
rfingers 7.12502
rthumb 40.5155 -14.0673
lclavicle 1.44864e-014 9.93923e-015
lhumerus -30.4109 -5.00482 60.5714
lradius 73.8784
lwrist 28.7551
lhand -17.1351 59.8019
lfingers 7.12502
lthumb 9.10501 449.585
rfemur -23.2074 -0.61048 12.0611
rtibia 31.2789
rfoot -10.8463 -10.9779
rtoes -4.56977
lfemur -16.2568 -6.97423 -17.3996
ltibia 23.095
lfoot -19.1929 1.66105
ltoes -16.8731
331
root 2.03082 17.5069 -5.21156 374.131 77.2705 364.155
lowerback -4.94321 1.9225 4.29205
upperback -0.133257 2.36335 -1.39446
thorax 2.86844 1.24809 -3.6734
lowerneck -6.73476 -11.7037 -5.0674
upperneck 24.9554 -15.6921 2.43955
head 9.58912 -7.35124 0.0346881
rclavicle 1.20513e-015 2.78299e-015
rhumerus -2.38712 12.0672 -13.5398
rradius 28.9329
rwrist 42.1903
rhand 14.3173 11.5239
rfingers 7.12502
rthumb 39.2086 -13.9361
lclavicle 1.20513e-015 2.78299e-015
lhumerus -27.6434 -6.32031 60.3346
lradius 75.3709
lwrist 28.8373
lhand -17.9519 59.7893
lfingers 7.12502
lthumb 8.31674 449.606
rfemur -25.2782 -1.4868 11.2465
rtibia 33.9211
rfoot -10.1653 -10.9005
rtoes -5.99102
lfemur -16.6782 -6.65225 -18.3665
ltibia 23.2025
lfoot -19.6389 1.44774
ltoes -12.9692
